# xmcd
#
# Track frame offsets:
# 150
# 22914
# 52231
# 78396
# 101281
# 122951
# 144882
# 169550
# 197879
# 220191
# 248292
#
# Disc length: 3664 seconds
#
#
# Revision: 10
# Processed by: cddbd v1.5.2PL0 Copyright (c) Steve Scherf et al.
# Submitted via: FreeRIP 2.93 
#
DISCID=8a0e4e0b
DTITLE=Lee Ritenour and Larry Carlton - LARRY and LEE
DYEAR=1995
DGENRE=Jazz
TTITLE0=Crosstown Kids
TTITLE1=Low Steppin'
TTITLE2=L.A. Underground
TTITLE3=Closed Door Jam
TTITLE4=After The Rain
TTITLE5=Remembering J.P.
TTITLE6=Fun In The Dark
TTITLE7=Lots About Nothin'
TTITLE8=Take That
TTITLE9=Up And Adam
TTITLE10=Reflection Of A Guitar Player
EXTD=YEAR: 1995
EXTT0=
EXTT1=
EXTT2=
EXTT3=
EXTT4=
EXTT5=
EXTT6=
EXTT7=
EXTT8=
EXTT9=
EXTT10=
PLAYORDER=
